<svg xmlns="http://www.w3.org/2000/svg" viewBox="0 0 64 64" width="64" height="64">
  <title>DataLab</title>
  <rect width="64" height="64" rx="12" fill="#00274C"/>
  <g transform="translate(15 9.073) scale(0.258)"><path d="M0 0 46 0 66 52 86 0 132 0 132 24 119 24 119 82 132 82 132 104 81 104 81 82 92 82 92 30.5 72.5 82 59.5 82 40 30.5 40 82 51 82 51 104 0 104 0 82 13 82 13 24 0 24Z" fill="#FFCB05"/></g>
  <g transform="translate(17 42.361) scale(0.628)"><path d="M0 0 4.5 0 4.5 20 0 20Z" fill="#FFCB05"/><path d="M7.5 0 12 0 12 20 7.5 20Z" fill="#FFCB05"/><path d="M17 0 21.5 0 21.5 20 17 20Z" fill="#FFCB05"/><path d="M7.5 7.75 21.5 7.75 21.5 12.25 7.5 12.25Z" fill="#FFCB05"/><path d="M30.625 10A3.875 3.875 0 1 1 33.981 4.187" fill="none" stroke="#FFCB05" stroke-width="4.5" stroke-linecap="butt"/><path d="M30.625 10A3.875 3.875 0 1 1 27.269 15.812" fill="none" stroke="#FFCB05" stroke-width="4.5" stroke-linecap="butt"/><path d="M43.25 0Q43.79 3.96 47.75 4.5Q43.79 5.04 43.25 9Q42.71 5.04 38.75 4.5Q42.71 3.96 43.25 0Z" fill="#FFCB05"/></g>
</svg>
